<svg width="165" height="45" viewBox="0 0 165 45" fill="none" xmlns="http://www.w3.org/2000/svg">
<rect y="0.611572" width="165" height="44" rx="22" fill="#C3DCE3"/>
<path d="M30.704 26.2116H25.504L24.512 28.6116H21.856L26.848 17.4116H29.408L34.416 28.6116H31.696L30.704 26.2116ZM29.888 24.2436L28.112 19.9556L26.336 24.2436H29.888ZM39.85 19.8756C40.65 19.8756 41.3753 20.0622 42.026 20.4356C42.6873 20.7982 43.2047 21.3156 43.578 21.9876C43.9513 22.6489 44.138 23.4222 44.138 24.3076C44.138 25.1929 43.9513 25.9716 43.578 26.6436C43.2047 27.3049 42.6873 27.8222 42.026 28.1956C41.3753 28.5582 40.65 28.7396 39.85 28.7396C38.666 28.7396 37.7647 28.3662 37.146 27.6196V28.6116H34.762V16.7396H37.258V20.9156C37.8873 20.2222 38.7513 19.8756 39.85 19.8756ZM39.418 26.6916C40.058 26.6916 40.5807 26.4782 40.986 26.0516C41.402 25.6142 41.61 25.0329 41.61 24.3076C41.61 23.5822 41.402 23.0062 40.986 22.5796C40.5807 22.1422 40.058 21.9236 39.418 21.9236C38.778 21.9236 38.25 22.1422 37.834 22.5796C37.4287 23.0062 37.226 23.5822 37.226 24.3076C37.226 25.0329 37.4287 25.6142 37.834 26.0516C38.25 26.4782 38.778 26.6916 39.418 26.6916ZM49.2649 28.7396C48.3582 28.7396 47.5422 28.5529 46.8169 28.1796C46.1022 27.7956 45.5422 27.2676 45.1369 26.5956C44.7315 25.9236 44.5289 25.1609 44.5289 24.3076C44.5289 23.4542 44.7315 22.6916 45.1369 22.0196C45.5422 21.3476 46.1022 20.8249 46.8169 20.4516C47.5422 20.0676 48.3582 19.8756 49.2649 19.8756C50.1715 19.8756 50.9822 20.0676 51.6969 20.4516C52.4115 20.8249 52.9715 21.3476 53.3769 22.0196C53.7822 22.6916 53.9849 23.4542 53.9849 24.3076C53.9849 25.1609 53.7822 25.9236 53.3769 26.5956C52.9715 27.2676 52.4115 27.7956 51.6969 28.1796C50.9822 28.5529 50.1715 28.7396 49.2649 28.7396ZM49.2649 26.6916C49.9049 26.6916 50.4275 26.4782 50.8329 26.0516C51.2489 25.6142 51.4569 25.0329 51.4569 24.3076C51.4569 23.5822 51.2489 23.0062 50.8329 22.5796C50.4275 22.1422 49.9049 21.9236 49.2649 21.9236C48.6249 21.9236 48.0969 22.1422 47.6809 22.5796C47.2649 23.0062 47.0569 23.5822 47.0569 24.3076C47.0569 25.0329 47.2649 25.6142 47.6809 26.0516C48.0969 26.4782 48.6249 26.6916 49.2649 26.6916ZM63.6853 20.0036V28.6116H61.3173V27.5876C60.9866 27.9609 60.5919 28.2489 60.1333 28.4516C59.6746 28.6436 59.1786 28.7396 58.6453 28.7396C57.5146 28.7396 56.6186 28.4142 55.9573 27.7636C55.2959 27.1129 54.9653 26.1476 54.9653 24.8676V20.0036H57.4613V24.4996C57.4613 25.8862 58.0426 26.5796 59.2053 26.5796C59.8026 26.5796 60.2826 26.3876 60.6453 26.0036C61.0079 25.6089 61.1893 25.0276 61.1893 24.2596V20.0036H63.6853ZM70.9096 28.1956C70.6643 28.3769 70.3603 28.5156 69.9976 28.6116C69.6456 28.6969 69.2723 28.7396 68.8776 28.7396C67.8536 28.7396 67.059 28.4782 66.4936 27.9556C65.939 27.4329 65.6616 26.6649 65.6616 25.6516V22.1156H64.3336V20.1956H65.6616V18.0996H68.1576V20.1956H70.3016V22.1156H68.1576V25.6196C68.1576 25.9822 68.2483 26.2649 68.4296 26.4676C68.6216 26.6596 68.8883 26.7556 69.2296 26.7556C69.6243 26.7556 69.9603 26.6489 70.2376 26.4356L70.9096 28.1956ZM80.65 19.8756C81.45 19.8756 82.1753 20.0622 82.826 20.4356C83.4873 20.7982 84.0047 21.3156 84.378 21.9876C84.7513 22.6489 84.938 23.4222 84.938 24.3076C84.938 25.1929 84.7513 25.9716 84.378 26.6436C84.0047 27.3049 83.4873 27.8222 82.826 28.1956C82.1753 28.5582 81.45 28.7396 80.65 28.7396C79.5513 28.7396 78.6873 28.3929 78.058 27.6996V31.7156H75.562V20.0036H77.946V20.9956C78.5647 20.2489 79.466 19.8756 80.65 19.8756ZM80.218 26.6916C80.858 26.6916 81.3807 26.4782 81.786 26.0516C82.202 25.6142 82.41 25.0329 82.41 24.3076C82.41 23.5822 82.202 23.0062 81.786 22.5796C81.3807 22.1422 80.858 21.9236 80.218 21.9236C79.578 21.9236 79.05 22.1422 78.634 22.5796C78.2287 23.0062 78.026 23.5822 78.026 24.3076C78.026 25.0329 78.2287 25.6142 78.634 26.0516C79.05 26.4782 79.578 26.6916 80.218 26.6916ZM85.9689 16.7396H88.4649V28.6116H85.9689V16.7396ZM93.6134 19.8756C94.9467 19.8756 95.9707 20.1956 96.6854 20.8356C97.4 21.4649 97.7574 22.4196 97.7574 23.6996V28.6116H95.4214V27.5396C94.952 28.3396 94.0774 28.7396 92.7974 28.7396C92.136 28.7396 91.56 28.6276 91.0694 28.4036C90.5894 28.1796 90.2214 27.8702 89.9654 27.4756C89.7094 27.0809 89.5814 26.6329 89.5814 26.1316C89.5814 25.3316 89.88 24.7022 90.4774 24.2436C91.0854 23.7849 92.0187 23.5556 93.2774 23.5556H95.2614C95.2614 23.0116 95.096 22.5956 94.7654 22.3076C94.4347 22.0089 93.9387 21.8596 93.2774 21.8596C92.8187 21.8596 92.3654 21.9342 91.9174 22.0836C91.48 22.2222 91.1067 22.4142 90.7974 22.6596L89.9014 20.9156C90.3707 20.5849 90.9307 20.3289 91.5814 20.1476C92.2427 19.9662 92.92 19.8756 93.6134 19.8756ZM93.4214 27.0596C93.848 27.0596 94.2267 26.9636 94.5574 26.7716C94.888 26.5689 95.1227 26.2756 95.2614 25.8916V25.0116H93.5494C92.5254 25.0116 92.0134 25.3476 92.0134 26.0196C92.0134 26.3396 92.136 26.5956 92.3814 26.7876C92.6374 26.9689 92.984 27.0596 93.4214 27.0596ZM104.928 28.1956C104.683 28.3769 104.379 28.5156 104.016 28.6116C103.664 28.6969 103.291 28.7396 102.896 28.7396C101.872 28.7396 101.078 28.4782 100.512 27.9556C99.9577 27.4329 99.6804 26.6649 99.6804 25.6516V22.1156H98.3524V20.1956H99.6804V18.0996H102.176V20.1956H104.32V22.1156H102.176V25.6196C102.176 25.9822 102.267 26.2649 102.448 26.4676C102.64 26.6596 102.907 26.7556 103.248 26.7556C103.643 26.7556 103.979 26.6489 104.256 26.4356L104.928 28.1956ZM108.425 20.1956H110.633V22.1156H108.489V28.6116H105.993V22.1156H104.665V20.1956H105.993V19.8116C105.993 18.8302 106.281 18.0516 106.857 17.4756C107.444 16.8996 108.265 16.6116 109.321 16.6116C109.695 16.6116 110.047 16.6542 110.377 16.7396C110.719 16.8142 111.001 16.9262 111.225 17.0756L110.569 18.8836C110.281 18.6809 109.945 18.5796 109.561 18.5796C108.804 18.5796 108.425 18.9956 108.425 19.8276V20.1956ZM115.224 28.7396C114.317 28.7396 113.501 28.5529 112.776 28.1796C112.061 27.7956 111.501 27.2676 111.096 26.5956C110.69 25.9236 110.488 25.1609 110.488 24.3076C110.488 23.4542 110.69 22.6916 111.096 22.0196C111.501 21.3476 112.061 20.8249 112.776 20.4516C113.501 20.0676 114.317 19.8756 115.224 19.8756C116.13 19.8756 116.941 20.0676 117.656 20.4516C118.37 20.8249 118.93 21.3476 119.336 22.0196C119.741 22.6916 119.944 23.4542 119.944 24.3076C119.944 25.1609 119.741 25.9236 119.336 26.5956C118.93 27.2676 118.37 27.7956 117.656 28.1796C116.941 28.5529 116.13 28.7396 115.224 28.7396ZM115.224 26.6916C115.864 26.6916 116.386 26.4782 116.792 26.0516C117.208 25.6142 117.416 25.0329 117.416 24.3076C117.416 23.5822 117.208 23.0062 116.792 22.5796C116.386 22.1422 115.864 21.9236 115.224 21.9236C114.584 21.9236 114.056 22.1422 113.64 22.5796C113.224 23.0062 113.016 23.5822 113.016 24.3076C113.016 25.0329 113.224 25.6142 113.64 26.0516C114.056 26.4782 114.584 26.6916 115.224 26.6916ZM123.356 21.1396C123.655 20.7236 124.055 20.4089 124.556 20.1956C125.068 19.9822 125.655 19.8756 126.316 19.8756V22.1796C126.039 22.1582 125.852 22.1476 125.756 22.1476C125.041 22.1476 124.481 22.3502 124.076 22.7556C123.671 23.1502 123.468 23.7476 123.468 24.5476V28.6116H120.972V20.0036H123.356V21.1396ZM138.184 19.8756C139.261 19.8756 140.115 20.1956 140.744 20.8356C141.384 21.4649 141.704 22.4142 141.704 23.6836V28.6116H139.208V24.0676C139.208 23.3849 139.064 22.8782 138.776 22.5476C138.499 22.2062 138.099 22.0356 137.576 22.0356C136.989 22.0356 136.525 22.2276 136.184 22.6116C135.843 22.9849 135.672 23.5449 135.672 24.2916V28.6116H133.176V24.0676C133.176 22.7129 132.632 22.0356 131.544 22.0356C130.968 22.0356 130.509 22.2276 130.168 22.6116C129.827 22.9849 129.656 23.5449 129.656 24.2916V28.6116H127.16V20.0036H129.544V20.9956C129.864 20.6329 130.253 20.3556 130.712 20.1636C131.181 19.9716 131.693 19.8756 132.248 19.8756C132.856 19.8756 133.405 19.9982 133.896 20.2436C134.387 20.4782 134.781 20.8249 135.08 21.2836C135.432 20.8356 135.875 20.4889 136.408 20.2436C136.952 19.9982 137.544 19.8756 138.184 19.8756Z" fill="#2B788B"/>
</svg>
