<svg width="140" height="32" viewBox="0 0 140 32" fill="none" xmlns="http://www.w3.org/2000/svg">
<rect width="140" height="32" rx="16" fill="#639B6D"/>
<path d="M19.93 21L24.34 11.2H26.132L30.556 21H28.652L24.858 12.166H25.586L21.806 21H19.93ZM21.96 18.732L22.45 17.304H27.742L28.232 18.732H21.96ZM34.17 21.098C33.4513 21.098 32.8026 20.9393 32.224 20.622C31.6546 20.2953 31.2066 19.8473 30.88 19.278C30.5533 18.7087 30.39 18.0367 30.39 17.262C30.39 16.4873 30.5533 15.8153 30.88 15.246C31.2066 14.6767 31.6546 14.2333 32.224 13.916C32.8026 13.5987 33.4513 13.44 34.17 13.44C34.7953 13.44 35.3553 13.58 35.85 13.86C36.3446 14.1307 36.7366 14.546 37.026 15.106C37.3153 15.666 37.46 16.3847 37.46 17.262C37.46 18.13 37.32 18.8487 37.04 19.418C36.76 19.978 36.3726 20.398 35.878 20.678C35.3833 20.958 34.814 21.098 34.17 21.098ZM34.38 19.6C34.8 19.6 35.1733 19.5067 35.5 19.32C35.836 19.1333 36.102 18.8627 36.298 18.508C36.5033 18.1533 36.606 17.738 36.606 17.262C36.606 16.7767 36.5033 16.3613 36.298 16.016C36.102 15.6613 35.836 15.3907 35.5 15.204C35.1733 15.0173 34.8 14.924 34.38 14.924C33.96 14.924 33.582 15.0173 33.246 15.204C32.9193 15.3907 32.6533 15.6613 32.448 16.016C32.252 16.3613 32.154 16.7767 32.154 17.262C32.154 17.738 32.252 18.1533 32.448 18.508C32.6533 18.8627 32.9193 19.1333 33.246 19.32C33.582 19.5067 33.96 19.6 34.38 19.6ZM36.648 21V19.236L36.718 17.248L36.578 15.26V10.612H38.314V21H36.648ZM43.2213 21.098C42.5026 21.098 41.854 20.9393 41.2753 20.622C40.706 20.2953 40.258 19.8473 39.9313 19.278C39.6046 18.7087 39.4413 18.0367 39.4413 17.262C39.4413 16.4873 39.6046 15.8153 39.9313 15.246C40.258 14.6767 40.706 14.2333 41.2753 13.916C41.854 13.5987 42.5026 13.44 43.2213 13.44C43.8466 13.44 44.4066 13.58 44.9013 13.86C45.396 14.1307 45.788 14.546 46.0773 15.106C46.3666 15.666 46.5113 16.3847 46.5113 17.262C46.5113 18.13 46.3713 18.8487 46.0913 19.418C45.8113 19.978 45.424 20.398 44.9293 20.678C44.4346 20.958 43.8653 21.098 43.2213 21.098ZM43.4313 19.6C43.8513 19.6 44.2246 19.5067 44.5513 19.32C44.8873 19.1333 45.1533 18.8627 45.3493 18.508C45.5546 18.1533 45.6573 17.738 45.6573 17.262C45.6573 16.7767 45.5546 16.3613 45.3493 16.016C45.1533 15.6613 44.8873 15.3907 44.5513 15.204C44.2246 15.0173 43.8513 14.924 43.4313 14.924C43.0113 14.924 42.6333 15.0173 42.2973 15.204C41.9706 15.3907 41.7046 15.6613 41.4993 16.016C41.3033 16.3613 41.2053 16.7767 41.2053 17.262C41.2053 17.738 41.3033 18.1533 41.4993 18.508C41.7046 18.8627 41.9706 19.1333 42.2973 19.32C42.6333 19.5067 43.0113 19.6 43.4313 19.6ZM45.6993 21V19.236L45.7693 17.248L45.6293 15.26V10.612H47.3653V21H45.6993ZM55.2318 21.098C54.4104 21.098 53.7758 20.888 53.3278 20.468C52.8798 20.0387 52.6558 19.4087 52.6558 18.578V11.872H54.4058V18.536C54.4058 18.8907 54.4944 19.166 54.6718 19.362C54.8584 19.558 55.1151 19.656 55.4418 19.656C55.8338 19.656 56.1604 19.5533 56.4218 19.348L56.9118 20.594C56.7064 20.762 56.4544 20.888 56.1558 20.972C55.8571 21.056 55.5491 21.098 55.2318 21.098ZM51.4238 14.98V13.58H56.4078V14.98H51.4238ZM60.9053 21.098C60.1399 21.098 59.4586 20.9347 58.8613 20.608C58.2639 20.272 57.7926 19.8147 57.4473 19.236C57.1019 18.6573 56.9293 17.9993 56.9293 17.262C56.9293 16.5153 57.1019 15.8573 57.4473 15.288C57.7926 14.7093 58.2639 14.2567 58.8613 13.93C59.4586 13.6033 60.1399 13.44 60.9053 13.44C61.6799 13.44 62.3659 13.6033 62.9633 13.93C63.5699 14.2567 64.0413 14.7047 64.3773 15.274C64.7226 15.8433 64.8953 16.506 64.8953 17.262C64.8953 17.9993 64.7226 18.6573 64.3773 19.236C64.0413 19.8147 63.5699 20.272 62.9633 20.608C62.3659 20.9347 61.6799 21.098 60.9053 21.098ZM60.9053 19.6C61.3346 19.6 61.7173 19.5067 62.0533 19.32C62.3893 19.1333 62.6506 18.8627 62.8373 18.508C63.0333 18.1533 63.1313 17.738 63.1313 17.262C63.1313 16.7767 63.0333 16.3613 62.8373 16.016C62.6506 15.6613 62.3893 15.3907 62.0533 15.204C61.7173 15.0173 61.3393 14.924 60.9193 14.924C60.4899 14.924 60.1073 15.0173 59.7713 15.204C59.4446 15.3907 59.1833 15.6613 58.9873 16.016C58.7913 16.3613 58.6933 16.7767 58.6933 17.262C58.6933 17.738 58.7913 18.1533 58.9873 18.508C59.1833 18.8627 59.4446 19.1333 59.7713 19.32C60.1073 19.5067 60.4853 19.6 60.9053 19.6ZM69.3178 21V10.612H71.0678V21H69.3178ZM76.3187 21.098C75.4881 21.098 74.7601 20.9347 74.1347 20.608C73.5187 20.272 73.0381 19.8147 72.6927 19.236C72.3567 18.6573 72.1887 17.9993 72.1887 17.262C72.1887 16.5153 72.3521 15.8573 72.6787 15.288C73.0147 14.7093 73.4721 14.2567 74.0507 13.93C74.6387 13.6033 75.3061 13.44 76.0527 13.44C76.7807 13.44 77.4294 13.5987 77.9987 13.916C78.5681 14.2333 79.0161 14.6813 79.3427 15.26C79.6694 15.8387 79.8327 16.52 79.8327 17.304C79.8327 17.3787 79.8281 17.4627 79.8187 17.556C79.8187 17.6493 79.8141 17.738 79.8047 17.822H73.5747V16.66H78.8807L78.1947 17.024C78.2041 16.5947 78.1154 16.2167 77.9287 15.89C77.7421 15.5633 77.4854 15.3067 77.1587 15.12C76.8414 14.9333 76.4727 14.84 76.0527 14.84C75.6234 14.84 75.2454 14.9333 74.9187 15.12C74.6014 15.3067 74.3494 15.568 74.1627 15.904C73.9854 16.2307 73.8967 16.618 73.8967 17.066V17.346C73.8967 17.794 73.9994 18.1907 74.2047 18.536C74.4101 18.8813 74.6994 19.1473 75.0727 19.334C75.4461 19.5207 75.8754 19.614 76.3607 19.614C76.7807 19.614 77.1587 19.5487 77.4947 19.418C77.8307 19.2873 78.1294 19.082 78.3907 18.802L79.3287 19.88C78.9927 20.272 78.5681 20.5753 78.0547 20.79C77.5507 20.9953 76.9721 21.098 76.3187 21.098ZM85.3546 21V19.488L85.2566 19.166V16.52C85.2566 16.0067 85.1026 15.61 84.7946 15.33C84.4866 15.0407 84.02 14.896 83.3946 14.896C82.9746 14.896 82.5593 14.9613 82.1486 15.092C81.7473 15.2227 81.4066 15.4047 81.1266 15.638L80.4406 14.364C80.842 14.056 81.318 13.8273 81.8686 13.678C82.4286 13.5193 83.0073 13.44 83.6046 13.44C84.6873 13.44 85.5226 13.7013 86.1106 14.224C86.708 14.7373 87.0066 15.5353 87.0066 16.618V21H85.3546ZM83.0026 21.098C82.4426 21.098 81.9526 21.0047 81.5326 20.818C81.1126 20.622 80.786 20.356 80.5526 20.02C80.3286 19.6747 80.2166 19.2873 80.2166 18.858C80.2166 18.438 80.3146 18.06 80.5106 17.724C80.716 17.388 81.0473 17.122 81.5046 16.926C81.962 16.73 82.5686 16.632 83.3246 16.632H85.4946V17.794H83.4506C82.8533 17.794 82.452 17.892 82.2466 18.088C82.0413 18.2747 81.9386 18.508 81.9386 18.788C81.9386 19.1053 82.0646 19.3573 82.3166 19.544C82.5686 19.7307 82.9186 19.824 83.3666 19.824C83.796 19.824 84.1786 19.726 84.5146 19.53C84.86 19.334 85.1073 19.0447 85.2566 18.662L85.5506 19.712C85.3826 20.1507 85.0793 20.4913 84.6406 20.734C84.2113 20.9767 83.6653 21.098 83.0026 21.098ZM88.6925 21V13.524H90.3585V15.582L90.1625 14.98C90.3865 14.476 90.7365 14.0933 91.2125 13.832C91.6979 13.5707 92.2999 13.44 93.0185 13.44V15.106C92.9439 15.0873 92.8739 15.078 92.8085 15.078C92.7432 15.0687 92.6779 15.064 92.6125 15.064C91.9499 15.064 91.4225 15.26 91.0305 15.652C90.6385 16.0347 90.4425 16.6087 90.4425 17.374V21H88.6925ZM98.1851 13.44C98.7824 13.44 99.3144 13.5567 99.7811 13.79C100.257 14.0233 100.63 14.3827 100.901 14.868C101.172 15.344 101.307 15.96 101.307 16.716V21H99.5571V16.94C99.5571 16.2773 99.3984 15.7827 99.0811 15.456C98.7731 15.1293 98.3391 14.966 97.7791 14.966C97.3684 14.966 97.0044 15.05 96.6871 15.218C96.3697 15.386 96.1224 15.638 95.9451 15.974C95.7771 16.3007 95.6931 16.716 95.6931 17.22V21H93.9431V13.524H95.6091V15.54L95.3151 14.924C95.5764 14.448 95.9544 14.084 96.4491 13.832C96.9531 13.5707 97.5317 13.44 98.1851 13.44ZM106.495 21.098C105.664 21.098 104.936 20.9347 104.311 20.608C103.695 20.272 103.214 19.8147 102.869 19.236C102.533 18.6573 102.365 17.9993 102.365 17.262C102.365 16.5153 102.528 15.8573 102.855 15.288C103.191 14.7093 103.648 14.2567 104.227 13.93C104.815 13.6033 105.482 13.44 106.229 13.44C106.957 13.44 107.605 13.5987 108.175 13.916C108.744 14.2333 109.192 14.6813 109.519 15.26C109.845 15.8387 110.009 16.52 110.009 17.304C110.009 17.3787 110.004 17.4627 109.995 17.556C109.995 17.6493 109.99 17.738 109.981 17.822H103.751V16.66H109.057L108.371 17.024C108.38 16.5947 108.291 16.2167 108.105 15.89C107.918 15.5633 107.661 15.3067 107.335 15.12C107.017 14.9333 106.649 14.84 106.229 14.84C105.799 14.84 105.421 14.9333 105.095 15.12C104.777 15.3067 104.525 15.568 104.339 15.904C104.161 16.2307 104.073 16.618 104.073 17.066V17.346C104.073 17.794 104.175 18.1907 104.381 18.536C104.586 18.8813 104.875 19.1473 105.249 19.334C105.622 19.5207 106.051 19.614 106.537 19.614C106.957 19.614 107.335 19.5487 107.671 19.418C108.007 19.2873 108.305 19.082 108.567 18.802L109.505 19.88C109.169 20.272 108.744 20.5753 108.231 20.79C107.727 20.9953 107.148 21.098 106.495 21.098ZM114.294 21.098C113.575 21.098 112.926 20.9393 112.348 20.622C111.778 20.2953 111.33 19.8473 111.004 19.278C110.677 18.7087 110.514 18.0367 110.514 17.262C110.514 16.4873 110.677 15.8153 111.004 15.246C111.33 14.6767 111.778 14.2333 112.348 13.916C112.926 13.5987 113.575 13.44 114.294 13.44C114.919 13.44 115.479 13.58 115.974 13.86C116.468 14.1307 116.86 14.546 117.15 15.106C117.439 15.666 117.584 16.3847 117.584 17.262C117.584 18.13 117.444 18.8487 117.164 19.418C116.884 19.978 116.496 20.398 116.002 20.678C115.507 20.958 114.938 21.098 114.294 21.098ZM114.504 19.6C114.924 19.6 115.297 19.5067 115.624 19.32C115.96 19.1333 116.226 18.8627 116.422 18.508C116.627 18.1533 116.73 17.738 116.73 17.262C116.73 16.7767 116.627 16.3613 116.422 16.016C116.226 15.6613 115.96 15.3907 115.624 15.204C115.297 15.0173 114.924 14.924 114.504 14.924C114.084 14.924 113.706 15.0173 113.37 15.204C113.043 15.3907 112.777 15.6613 112.572 16.016C112.376 16.3613 112.278 16.7767 112.278 17.262C112.278 17.738 112.376 18.1533 112.572 18.508C112.777 18.8627 113.043 19.1333 113.37 19.32C113.706 19.5067 114.084 19.6 114.504 19.6ZM116.772 21V19.236L116.842 17.248L116.702 15.26V10.612H118.438V21H116.772Z" fill="#F6F5F4"/>
</svg>
