<svg width="864" height="44" viewBox="0 0 864 44" fill="none" xmlns="http://www.w3.org/2000/svg">
<path d="M170.552 27.2L168.184 23.584L170.552 19.968H172.712L170.536 23.584L172.712 27.2H170.552ZM170.072 24.464V22.72H175.8V24.464H170.072Z" fill="#5996A5"/>
<rect x="151.5" y="1.5" width="41" height="41" rx="20.5" stroke="#5996A5" stroke-width="3"/>
<path d="M239.352 28V17.76L240.472 18.88H237.112V16.8H241.944V28H239.352Z" fill="#5996A5"/>
<rect x="219.5" y="1.5" width="42" height="41" rx="20.5" stroke="#5996A5" stroke-width="3"/>
<rect x="288.5" y="1.5" width="41" height="41" rx="20.5" fill="#2B788B"/>
<path d="M304.528 28V26.32L308.848 22.24C309.189 21.9307 309.44 21.6533 309.6 21.408C309.76 21.1627 309.867 20.9387 309.92 20.736C309.984 20.5333 310.016 20.3467 310.016 20.176C310.016 19.728 309.861 19.3867 309.552 19.152C309.253 18.9067 308.811 18.784 308.224 18.784C307.755 18.784 307.317 18.8747 306.912 19.056C306.517 19.2373 306.181 19.52 305.904 19.904L304.016 18.688C304.443 18.048 305.04 17.5413 305.808 17.168C306.576 16.7947 307.461 16.608 308.464 16.608C309.296 16.608 310.021 16.7467 310.64 17.024C311.269 17.2907 311.755 17.6693 312.096 18.16C312.448 18.6507 312.624 19.2373 312.624 19.92C312.624 20.2827 312.576 20.6453 312.48 21.008C312.395 21.36 312.213 21.7333 311.936 22.128C311.669 22.5227 311.275 22.9653 310.752 23.456L307.168 26.832L306.672 25.888H312.992V28H304.528Z" fill="#F6F5F4"/>
<rect x="288.5" y="1.5" width="41" height="41" rx="20.5" stroke="#2B788B" stroke-width="3"/>
<path d="M376.256 28.192C375.477 28.192 374.704 28.0907 373.936 27.888C373.168 27.6747 372.517 27.376 371.984 26.992L372.992 25.008C373.419 25.3173 373.915 25.5627 374.48 25.744C375.045 25.9253 375.616 26.016 376.192 26.016C376.843 26.016 377.355 25.888 377.728 25.632C378.101 25.376 378.288 25.024 378.288 24.576C378.288 24.1493 378.123 23.8133 377.792 23.568C377.461 23.3227 376.928 23.2 376.192 23.2H375.008V21.488L378.128 17.952L378.416 18.88H372.544V16.8H380.384V18.48L377.28 22.016L375.968 21.264H376.72C378.096 21.264 379.136 21.5733 379.84 22.192C380.544 22.8107 380.896 23.6053 380.896 24.576C380.896 25.2053 380.731 25.7973 380.4 26.352C380.069 26.896 379.563 27.3387 378.88 27.68C378.197 28.0213 377.323 28.192 376.256 28.192Z" fill="#5996A5"/>
<rect x="356.5" y="1.5" width="41" height="41" rx="20.5" stroke="#5996A5" stroke-width="3"/>
<path d="M425.196 38.126C424.788 38.126 424.44 37.988 424.152 37.712C423.864 37.424 423.72 37.064 423.72 36.632C423.72 36.176 423.864 35.816 424.152 35.552C424.44 35.276 424.788 35.138 425.196 35.138C425.604 35.138 425.952 35.276 426.24 35.552C426.528 35.816 426.672 36.176 426.672 36.632C426.672 37.064 426.528 37.424 426.24 37.712C425.952 37.988 425.604 38.126 425.196 38.126ZM430.311 38.126C429.903 38.126 429.555 37.988 429.267 37.712C428.979 37.424 428.835 37.064 428.835 36.632C428.835 36.176 428.979 35.816 429.267 35.552C429.555 35.276 429.903 35.138 430.311 35.138C430.719 35.138 431.067 35.276 431.355 35.552C431.643 35.816 431.787 36.176 431.787 36.632C431.787 37.064 431.643 37.424 431.355 37.712C431.067 37.988 430.719 38.126 430.311 38.126ZM435.425 38.126C435.017 38.126 434.669 37.988 434.381 37.712C434.093 37.424 433.949 37.064 433.949 36.632C433.949 36.176 434.093 35.816 434.381 35.552C434.669 35.276 435.017 35.138 435.425 35.138C435.833 35.138 436.181 35.276 436.469 35.552C436.757 35.816 436.901 36.176 436.901 36.632C436.901 37.064 436.757 37.424 436.469 37.712C436.181 37.988 435.833 38.126 435.425 38.126Z" fill="black"/>
<path d="M475.528 28V26.32L479.848 22.24C480.189 21.9307 480.44 21.6533 480.6 21.408C480.76 21.1627 480.867 20.9387 480.92 20.736C480.984 20.5333 481.016 20.3467 481.016 20.176C481.016 19.728 480.861 19.3867 480.552 19.152C480.253 18.9067 479.811 18.784 479.224 18.784C478.755 18.784 478.317 18.8747 477.912 19.056C477.517 19.2373 477.181 19.52 476.904 19.904L475.016 18.688C475.443 18.048 476.04 17.5413 476.808 17.168C477.576 16.7947 478.461 16.608 479.464 16.608C480.296 16.608 481.021 16.7467 481.64 17.024C482.269 17.2907 482.755 17.6693 483.096 18.16C483.448 18.6507 483.624 19.2373 483.624 19.92C483.624 20.2827 483.576 20.6453 483.48 21.008C483.395 21.36 483.213 21.7333 482.936 22.128C482.669 22.5227 482.275 22.9653 481.752 23.456L478.168 26.832L477.672 25.888H483.992V28H475.528ZM486.213 28L490.726 17.792L491.398 18.912H485.365L486.517 17.696V20.736H484.213V16.8H493.189V18.48L489.03 28H486.213Z" fill="#5996A5"/>
<rect x="463.5" y="1.5" width="42" height="41" rx="20.5" stroke="#5996A5" stroke-width="3"/>
<path d="M544.528 28V26.32L548.848 22.24C549.189 21.9307 549.44 21.6533 549.6 21.408C549.76 21.1627 549.867 20.9387 549.92 20.736C549.984 20.5333 550.016 20.3467 550.016 20.176C550.016 19.728 549.861 19.3867 549.552 19.152C549.253 18.9067 548.811 18.784 548.224 18.784C547.755 18.784 547.317 18.8747 546.912 19.056C546.517 19.2373 546.181 19.52 545.904 19.904L544.016 18.688C544.443 18.048 545.04 17.5413 545.808 17.168C546.576 16.7947 547.461 16.608 548.464 16.608C549.296 16.608 550.021 16.7467 550.64 17.024C551.269 17.2907 551.755 17.6693 552.096 18.16C552.448 18.6507 552.624 19.2373 552.624 19.92C552.624 20.2827 552.576 20.6453 552.48 21.008C552.395 21.36 552.213 21.7333 551.936 22.128C551.669 22.5227 551.275 22.9653 550.752 23.456L547.168 26.832L546.672 25.888H552.992V28H544.528ZM558.062 28.192C557.123 28.192 556.301 28.0533 555.597 27.776C554.893 27.488 554.344 27.088 553.949 26.576C553.555 26.0533 553.357 25.4453 553.357 24.752C553.357 24.0587 553.549 23.472 553.933 22.992C554.328 22.5013 554.877 22.1333 555.581 21.888C556.285 21.632 557.112 21.504 558.062 21.504C559.022 21.504 559.854 21.632 560.557 21.888C561.272 22.1333 561.822 22.5013 562.205 22.992C562.6 23.472 562.797 24.0587 562.797 24.752C562.797 25.4453 562.6 26.0533 562.205 26.576C561.811 27.088 561.256 27.488 560.542 27.776C559.837 28.0533 559.011 28.192 558.062 28.192ZM558.062 26.288C558.712 26.288 559.224 26.144 559.597 25.856C559.981 25.568 560.174 25.1733 560.174 24.672C560.174 24.1707 559.981 23.7813 559.597 23.504C559.224 23.216 558.712 23.072 558.062 23.072C557.422 23.072 556.915 23.216 556.541 23.504C556.168 23.7813 555.981 24.1707 555.981 24.672C555.981 25.1733 556.168 25.568 556.541 25.856C556.915 26.144 557.422 26.288 558.062 26.288ZM558.062 22.816C557.197 22.816 556.44 22.6987 555.789 22.464C555.149 22.2293 554.648 21.888 554.285 21.44C553.933 20.9813 553.757 20.4373 553.757 19.808C553.757 19.1467 553.939 18.5813 554.301 18.112C554.664 17.632 555.171 17.264 555.821 17.008C556.472 16.7413 557.219 16.608 558.062 16.608C558.926 16.608 559.678 16.7413 560.318 17.008C560.968 17.264 561.475 17.632 561.837 18.112C562.211 18.5813 562.398 19.1467 562.398 19.808C562.398 20.4373 562.216 20.9813 561.854 21.44C561.502 21.888 561 22.2293 560.35 22.464C559.699 22.6987 558.936 22.816 558.062 22.816ZM558.062 21.296C558.606 21.296 559.032 21.1733 559.341 20.928C559.661 20.6827 559.821 20.3467 559.821 19.92C559.821 19.472 559.656 19.1253 559.326 18.88C559.005 18.6347 558.584 18.512 558.062 18.512C557.549 18.512 557.133 18.6347 556.813 18.88C556.493 19.1253 556.333 19.472 556.333 19.92C556.333 20.3467 556.488 20.6827 556.797 20.928C557.107 21.1733 557.528 21.296 558.062 21.296Z" fill="#5996A5"/>
<rect x="532.5" y="1.5" width="43" height="41" rx="20.5" stroke="#5996A5" stroke-width="3"/>
<path d="M614.528 28V26.32L618.848 22.24C619.189 21.9307 619.44 21.6533 619.6 21.408C619.76 21.1627 619.867 20.9387 619.92 20.736C619.984 20.5333 620.016 20.3467 620.016 20.176C620.016 19.728 619.861 19.3867 619.552 19.152C619.253 18.9067 618.811 18.784 618.224 18.784C617.755 18.784 617.317 18.8747 616.912 19.056C616.517 19.2373 616.181 19.52 615.904 19.904L614.016 18.688C614.443 18.048 615.04 17.5413 615.808 17.168C616.576 16.7947 617.461 16.608 618.464 16.608C619.296 16.608 620.021 16.7467 620.64 17.024C621.269 17.2907 621.755 17.6693 622.096 18.16C622.448 18.6507 622.624 19.2373 622.624 19.92C622.624 20.2827 622.576 20.6453 622.48 21.008C622.395 21.36 622.213 21.7333 621.936 22.128C621.669 22.5227 621.275 22.9653 620.752 23.456L617.168 26.832L616.672 25.888H622.992V28H614.528ZM627.358 16.608C628.392 16.608 629.283 16.8213 630.03 17.248C630.776 17.6747 631.352 18.2987 631.757 19.12C632.163 19.9307 632.366 20.944 632.366 22.16C632.366 23.4507 632.12 24.544 631.63 25.44C631.15 26.336 630.483 27.0187 629.629 27.488C628.776 27.9573 627.784 28.192 626.653 28.192C626.067 28.192 625.501 28.128 624.957 28C624.413 27.872 623.944 27.68 623.549 27.424L624.509 25.52C624.819 25.7333 625.149 25.8827 625.501 25.968C625.853 26.0427 626.221 26.08 626.605 26.08C627.565 26.08 628.328 25.7867 628.893 25.2C629.47 24.6133 629.758 23.744 629.758 22.592C629.758 22.4 629.752 22.1867 629.741 21.952C629.731 21.7173 629.704 21.4827 629.661 21.248L630.365 21.92C630.184 22.336 629.928 22.688 629.597 22.976C629.267 23.2533 628.883 23.4667 628.445 23.616C628.008 23.7547 627.517 23.824 626.973 23.824C626.259 23.824 625.608 23.68 625.021 23.392C624.445 23.104 623.981 22.6987 623.629 22.176C623.288 21.6533 623.117 21.04 623.117 20.336C623.117 19.568 623.304 18.9067 623.677 18.352C624.061 17.7973 624.573 17.3707 625.213 17.072C625.864 16.7627 626.579 16.608 627.358 16.608ZM627.517 18.544C627.144 18.544 626.819 18.6133 626.541 18.752C626.264 18.88 626.045 19.072 625.885 19.328C625.725 19.5733 625.645 19.8667 625.645 20.208C625.645 20.72 625.816 21.1307 626.157 21.44C626.509 21.7387 626.973 21.888 627.549 21.888C627.923 21.888 628.253 21.8187 628.542 21.68C628.84 21.5307 629.069 21.328 629.229 21.072C629.389 20.816 629.47 20.528 629.47 20.208C629.47 19.888 629.389 19.6053 629.229 19.36C629.08 19.104 628.861 18.9067 628.574 18.768C628.286 18.6187 627.933 18.544 627.517 18.544Z" fill="#5996A5"/>
<rect x="602.5" y="1.5" width="42" height="41" rx="20.5" stroke="#5996A5" stroke-width="3"/>
<path d="M695.416 23.584L693.048 27.216H690.888L692.552 24.448H687.8V22.72H692.536L690.888 19.984H693.048L695.416 23.584Z" fill="#5996A5"/>
<rect x="671.5" y="1.5" width="41" height="41" rx="20.5" stroke="#5996A5" stroke-width="3"/>
</svg>
