<svg width="203" height="32" viewBox="0 0 203 32" fill="none" xmlns="http://www.w3.org/2000/svg">
<rect width="203" height="32" rx="16" fill="#CB5B43" fill-opacity="0.3"/>
<path d="M21.316 21V11.2H25.348C26.216 11.2 26.958 11.34 27.574 11.62C28.1993 11.9 28.68 12.3013 29.016 12.824C29.352 13.3467 29.52 13.9673 29.52 14.686C29.52 15.4047 29.352 16.0253 29.016 16.548C28.68 17.0613 28.1993 17.458 27.574 17.738C26.958 18.0087 26.216 18.144 25.348 18.144H22.324L23.136 17.318V21H21.316ZM27.728 21L25.25 17.444H27.196L29.688 21H27.728ZM23.136 17.514L22.324 16.646H25.264C26.0667 16.646 26.6687 16.4733 27.07 16.128C27.4807 15.7827 27.686 15.302 27.686 14.686C27.686 14.0607 27.4807 13.58 27.07 13.244C26.6687 12.908 26.0667 12.74 25.264 12.74H22.324L23.136 11.844V17.514ZM34.3422 21.098C33.5116 21.098 32.7836 20.9347 32.1582 20.608C31.5422 20.272 31.0616 19.8147 30.7162 19.236C30.3802 18.6573 30.2122 17.9993 30.2122 17.262C30.2122 16.5153 30.3756 15.8573 30.7022 15.288C31.0382 14.7093 31.4956 14.2567 32.0742 13.93C32.6622 13.6033 33.3296 13.44 34.0762 13.44C34.8042 13.44 35.4529 13.5987 36.0222 13.916C36.5916 14.2333 37.0396 14.6813 37.3662 15.26C37.6929 15.8387 37.8562 16.52 37.8562 17.304C37.8562 17.3787 37.8516 17.4627 37.8422 17.556C37.8422 17.6493 37.8376 17.738 37.8282 17.822H31.5982V16.66H36.9042L36.2182 17.024C36.2276 16.5947 36.1389 16.2167 35.9522 15.89C35.7656 15.5633 35.5089 15.3067 35.1822 15.12C34.8649 14.9333 34.4962 14.84 34.0762 14.84C33.6469 14.84 33.2689 14.9333 32.9422 15.12C32.6249 15.3067 32.3729 15.568 32.1862 15.904C32.0089 16.2307 31.9202 16.618 31.9202 17.066V17.346C31.9202 17.794 32.0229 18.1907 32.2282 18.536C32.4336 18.8813 32.7229 19.1473 33.0962 19.334C33.4696 19.5207 33.8989 19.614 34.3842 19.614C34.8042 19.614 35.1822 19.5487 35.5182 19.418C35.8542 19.2873 36.1529 19.082 36.4142 18.802L37.3522 19.88C37.0162 20.272 36.5916 20.5753 36.0782 20.79C35.5742 20.9953 34.9956 21.098 34.3422 21.098ZM48.4132 13.44C49.0106 13.44 49.5379 13.5567 49.9952 13.79C50.4619 14.0233 50.8259 14.3827 51.0872 14.868C51.3486 15.344 51.4792 15.96 51.4792 16.716V21H49.7292V16.94C49.7292 16.2773 49.5846 15.7827 49.2952 15.456C49.0059 15.1293 48.5906 14.966 48.0492 14.966C47.6666 14.966 47.3259 15.05 47.0272 15.218C46.7379 15.386 46.5092 15.6333 46.3412 15.96C46.1826 16.2867 46.1032 16.702 46.1032 17.206V21H44.3532V16.94C44.3532 16.2773 44.2086 15.7827 43.9192 15.456C43.6299 15.1293 43.2146 14.966 42.6732 14.966C42.2906 14.966 41.9499 15.05 41.6512 15.218C41.3619 15.386 41.1332 15.6333 40.9652 15.96C40.8066 16.2867 40.7272 16.702 40.7272 17.206V21H38.9772V13.524H40.6432V15.512L40.3492 14.924C40.6012 14.4387 40.9652 14.07 41.4412 13.818C41.9266 13.566 42.4772 13.44 43.0932 13.44C43.7932 13.44 44.3999 13.6127 44.9132 13.958C45.4359 14.3033 45.7812 14.826 45.9492 15.526L45.2632 15.288C45.5059 14.728 45.9072 14.28 46.4672 13.944C47.0272 13.608 47.6759 13.44 48.4132 13.44ZM56.5292 21.098C55.7638 21.098 55.0825 20.9347 54.4852 20.608C53.8878 20.272 53.4165 19.8147 53.0712 19.236C52.7258 18.6573 52.5532 17.9993 52.5532 17.262C52.5532 16.5153 52.7258 15.8573 53.0712 15.288C53.4165 14.7093 53.8878 14.2567 54.4852 13.93C55.0825 13.6033 55.7638 13.44 56.5292 13.44C57.3038 13.44 57.9898 13.6033 58.5872 13.93C59.1938 14.2567 59.6652 14.7047 60.0012 15.274C60.3465 15.8433 60.5192 16.506 60.5192 17.262C60.5192 17.9993 60.3465 18.6573 60.0012 19.236C59.6652 19.8147 59.1938 20.272 58.5872 20.608C57.9898 20.9347 57.3038 21.098 56.5292 21.098ZM56.5292 19.6C56.9585 19.6 57.3412 19.5067 57.6772 19.32C58.0132 19.1333 58.2745 18.8627 58.4612 18.508C58.6572 18.1533 58.7552 17.738 58.7552 17.262C58.7552 16.7767 58.6572 16.3613 58.4612 16.016C58.2745 15.6613 58.0132 15.3907 57.6772 15.204C57.3412 15.0173 56.9632 14.924 56.5432 14.924C56.1138 14.924 55.7312 15.0173 55.3952 15.204C55.0685 15.3907 54.8072 15.6613 54.6112 16.016C54.4152 16.3613 54.3172 16.7767 54.3172 17.262C54.3172 17.738 54.4152 18.1533 54.6112 18.508C54.8072 18.8627 55.0685 19.1333 55.3952 19.32C55.7312 19.5067 56.1092 19.6 56.5292 19.6ZM63.4155 21L60.2095 13.524H62.0295L64.7875 20.118H63.8915L66.7475 13.524H68.4275L65.2215 21H63.4155ZM72.2702 21.098C71.4395 21.098 70.7115 20.9347 70.0862 20.608C69.4702 20.272 68.9895 19.8147 68.6442 19.236C68.3082 18.6573 68.1402 17.9993 68.1402 17.262C68.1402 16.5153 68.3035 15.8573 68.6302 15.288C68.9662 14.7093 69.4235 14.2567 70.0022 13.93C70.5902 13.6033 71.2575 13.44 72.0042 13.44C72.7322 13.44 73.3809 13.5987 73.9502 13.916C74.5195 14.2333 74.9675 14.6813 75.2942 15.26C75.6209 15.8387 75.7842 16.52 75.7842 17.304C75.7842 17.3787 75.7795 17.4627 75.7702 17.556C75.7702 17.6493 75.7655 17.738 75.7562 17.822H69.5262V16.66H74.8322L74.1462 17.024C74.1555 16.5947 74.0669 16.2167 73.8802 15.89C73.6935 15.5633 73.4369 15.3067 73.1102 15.12C72.7929 14.9333 72.4242 14.84 72.0042 14.84C71.5749 14.84 71.1969 14.9333 70.8702 15.12C70.5529 15.3067 70.3009 15.568 70.1142 15.904C69.9369 16.2307 69.8482 16.618 69.8482 17.066V17.346C69.8482 17.794 69.9509 18.1907 70.1562 18.536C70.3615 18.8813 70.6509 19.1473 71.0242 19.334C71.3975 19.5207 71.8269 19.614 72.3122 19.614C72.7322 19.614 73.1102 19.5487 73.4462 19.418C73.7822 19.2873 74.0809 19.082 74.3422 18.802L75.2802 19.88C74.9442 20.272 74.5195 20.5753 74.0062 20.79C73.5022 20.9953 72.9235 21.098 72.2702 21.098ZM80.4523 21V13.104C80.4523 12.32 80.681 11.6947 81.1383 11.228C81.605 10.752 82.2677 10.514 83.1263 10.514C83.4343 10.514 83.7237 10.5467 83.9943 10.612C84.2743 10.6773 84.5077 10.78 84.6943 10.92L84.2183 12.236C84.0877 12.1333 83.9383 12.0587 83.7703 12.012C83.6023 11.956 83.4297 11.928 83.2523 11.928C82.8883 11.928 82.613 12.0307 82.4263 12.236C82.2397 12.432 82.1463 12.7307 82.1463 13.132V13.972L82.2023 14.756V21H80.4523ZM79.2203 14.98V13.58H84.2043V14.98H79.2203ZM84.836 21V13.524H86.502V15.582L86.306 14.98C86.53 14.476 86.88 14.0933 87.356 13.832C87.8413 13.5707 88.4433 13.44 89.162 13.44V15.106C89.0873 15.0873 89.0173 15.078 88.952 15.078C88.8866 15.0687 88.8213 15.064 88.756 15.064C88.0933 15.064 87.566 15.26 87.174 15.652C86.782 16.0347 86.586 16.6087 86.586 17.374V21H84.836ZM93.3782 21.098C92.6128 21.098 91.9315 20.9347 91.3342 20.608C90.7368 20.272 90.2655 19.8147 89.9202 19.236C89.5748 18.6573 89.4022 17.9993 89.4022 17.262C89.4022 16.5153 89.5748 15.8573 89.9202 15.288C90.2655 14.7093 90.7368 14.2567 91.3342 13.93C91.9315 13.6033 92.6128 13.44 93.3782 13.44C94.1528 13.44 94.8388 13.6033 95.4362 13.93C96.0428 14.2567 96.5142 14.7047 96.8502 15.274C97.1955 15.8433 97.3682 16.506 97.3682 17.262C97.3682 17.9993 97.1955 18.6573 96.8502 19.236C96.5142 19.8147 96.0428 20.272 95.4362 20.608C94.8388 20.9347 94.1528 21.098 93.3782 21.098ZM93.3782 19.6C93.8075 19.6 94.1902 19.5067 94.5262 19.32C94.8622 19.1333 95.1235 18.8627 95.3102 18.508C95.5062 18.1533 95.6042 17.738 95.6042 17.262C95.6042 16.7767 95.5062 16.3613 95.3102 16.016C95.1235 15.6613 94.8622 15.3907 94.5262 15.204C94.1902 15.0173 93.8122 14.924 93.3922 14.924C92.9628 14.924 92.5802 15.0173 92.2442 15.204C91.9175 15.3907 91.6562 15.6613 91.4602 16.016C91.2642 16.3613 91.1662 16.7767 91.1662 17.262C91.1662 17.738 91.2642 18.1533 91.4602 18.508C91.6562 18.8627 91.9175 19.1333 92.2442 19.32C92.5802 19.5067 92.9582 19.6 93.3782 19.6ZM107.918 13.44C108.515 13.44 109.042 13.5567 109.5 13.79C109.966 14.0233 110.33 14.3827 110.592 14.868C110.853 15.344 110.984 15.96 110.984 16.716V21H109.234V16.94C109.234 16.2773 109.089 15.7827 108.8 15.456C108.51 15.1293 108.095 14.966 107.554 14.966C107.171 14.966 106.83 15.05 106.532 15.218C106.242 15.386 106.014 15.6333 105.846 15.96C105.687 16.2867 105.608 16.702 105.608 17.206V21H103.858V16.94C103.858 16.2773 103.713 15.7827 103.424 15.456C103.134 15.1293 102.719 14.966 102.178 14.966C101.795 14.966 101.454 15.05 101.156 15.218C100.866 15.386 100.638 15.6333 100.47 15.96C100.311 16.2867 100.232 16.702 100.232 17.206V21H98.4816V13.524H100.148V15.512L99.8536 14.924C100.106 14.4387 100.47 14.07 100.946 13.818C101.431 13.566 101.982 13.44 102.598 13.44C103.298 13.44 103.904 13.6127 104.418 13.958C104.94 14.3033 105.286 14.826 105.454 15.526L104.768 15.288C105.01 14.728 105.412 14.28 105.972 13.944C106.532 13.608 107.18 13.44 107.918 13.44ZM119.133 21.098C118.414 21.098 117.766 20.9393 117.187 20.622C116.618 20.2953 116.17 19.8473 115.843 19.278C115.516 18.7087 115.353 18.0367 115.353 17.262C115.353 16.4873 115.516 15.8153 115.843 15.246C116.17 14.6767 116.618 14.2333 117.187 13.916C117.766 13.5987 118.414 13.44 119.133 13.44C119.758 13.44 120.318 13.58 120.813 13.86C121.308 14.1307 121.7 14.546 121.989 15.106C122.278 15.666 122.423 16.3847 122.423 17.262C122.423 18.13 122.283 18.8487 122.003 19.418C121.723 19.978 121.336 20.398 120.841 20.678C120.346 20.958 119.777 21.098 119.133 21.098ZM119.343 19.6C119.763 19.6 120.136 19.5067 120.463 19.32C120.799 19.1333 121.065 18.8627 121.261 18.508C121.466 18.1533 121.569 17.738 121.569 17.262C121.569 16.7767 121.466 16.3613 121.261 16.016C121.065 15.6613 120.799 15.3907 120.463 15.204C120.136 15.0173 119.763 14.924 119.343 14.924C118.923 14.924 118.545 15.0173 118.209 15.204C117.882 15.3907 117.616 15.6613 117.411 16.016C117.215 16.3613 117.117 16.7767 117.117 17.262C117.117 17.738 117.215 18.1533 117.411 18.508C117.616 18.8627 117.882 19.1333 118.209 19.32C118.545 19.5067 118.923 19.6 119.343 19.6ZM121.611 21V19.236L121.681 17.248L121.541 15.26V10.612H123.277V21H121.611ZM125.02 21V13.524H126.77V21H125.02ZM125.902 12.292C125.576 12.292 125.305 12.1893 125.09 11.984C124.885 11.7787 124.782 11.5313 124.782 11.242C124.782 10.9433 124.885 10.696 125.09 10.5C125.305 10.2947 125.576 10.192 125.902 10.192C126.229 10.192 126.495 10.29 126.7 10.486C126.915 10.6727 127.022 10.9107 127.022 11.2C127.022 11.508 126.92 11.7693 126.714 11.984C126.509 12.1893 126.238 12.292 125.902 12.292ZM131.937 21.098C131.153 21.098 130.453 20.9347 129.837 20.608C129.231 20.272 128.755 19.8147 128.409 19.236C128.064 18.6573 127.891 17.9993 127.891 17.262C127.891 16.5153 128.064 15.8573 128.409 15.288C128.755 14.7093 129.231 14.2567 129.837 13.93C130.453 13.6033 131.153 13.44 131.937 13.44C132.665 13.44 133.305 13.5893 133.855 13.888C134.415 14.1773 134.84 14.6067 135.129 15.176L133.785 15.96C133.561 15.6053 133.286 15.344 132.959 15.176C132.642 15.008 132.297 14.924 131.923 14.924C131.494 14.924 131.107 15.0173 130.761 15.204C130.416 15.3907 130.145 15.6613 129.949 16.016C129.753 16.3613 129.655 16.7767 129.655 17.262C129.655 17.7473 129.753 18.1673 129.949 18.522C130.145 18.8673 130.416 19.1333 130.761 19.32C131.107 19.5067 131.494 19.6 131.923 19.6C132.297 19.6 132.642 19.516 132.959 19.348C133.286 19.18 133.561 18.9187 133.785 18.564L135.129 19.348C134.84 19.908 134.415 20.342 133.855 20.65C133.305 20.9487 132.665 21.098 131.937 21.098ZM138.992 21.098C138.17 21.098 137.536 20.888 137.088 20.468C136.64 20.0387 136.416 19.4087 136.416 18.578V11.872H138.166V18.536C138.166 18.8907 138.254 19.166 138.432 19.362C138.618 19.558 138.875 19.656 139.202 19.656C139.594 19.656 139.92 19.5533 140.182 19.348L140.672 20.594C140.466 20.762 140.214 20.888 139.916 20.972C139.617 21.056 139.309 21.098 138.992 21.098ZM135.184 14.98V13.58H140.168V14.98H135.184ZM141.551 21V13.524H143.301V21H141.551ZM142.433 12.292C142.107 12.292 141.836 12.1893 141.621 11.984C141.416 11.7787 141.313 11.5313 141.313 11.242C141.313 10.9433 141.416 10.696 141.621 10.5C141.836 10.2947 142.107 10.192 142.433 10.192C142.76 10.192 143.026 10.29 143.231 10.486C143.446 10.6727 143.553 10.9107 143.553 11.2C143.553 11.508 143.451 11.7693 143.245 11.984C143.04 12.1893 142.769 12.292 142.433 12.292ZM148.398 21.098C147.633 21.098 146.951 20.9347 146.354 20.608C145.757 20.272 145.285 19.8147 144.94 19.236C144.595 18.6573 144.422 17.9993 144.422 17.262C144.422 16.5153 144.595 15.8573 144.94 15.288C145.285 14.7093 145.757 14.2567 146.354 13.93C146.951 13.6033 147.633 13.44 148.398 13.44C149.173 13.44 149.859 13.6033 150.456 13.93C151.063 14.2567 151.534 14.7047 151.87 15.274C152.215 15.8433 152.388 16.506 152.388 17.262C152.388 17.9993 152.215 18.6573 151.87 19.236C151.534 19.8147 151.063 20.272 150.456 20.608C149.859 20.9347 149.173 21.098 148.398 21.098ZM148.398 19.6C148.827 19.6 149.21 19.5067 149.546 19.32C149.882 19.1333 150.143 18.8627 150.33 18.508C150.526 18.1533 150.624 17.738 150.624 17.262C150.624 16.7767 150.526 16.3613 150.33 16.016C150.143 15.6613 149.882 15.3907 149.546 15.204C149.21 15.0173 148.832 14.924 148.412 14.924C147.983 14.924 147.6 15.0173 147.264 15.204C146.937 15.3907 146.676 15.6613 146.48 16.016C146.284 16.3613 146.186 16.7767 146.186 17.262C146.186 17.738 146.284 18.1533 146.48 18.508C146.676 18.8627 146.937 19.1333 147.264 19.32C147.6 19.5067 147.978 19.6 148.398 19.6ZM157.744 13.44C158.341 13.44 158.873 13.5567 159.34 13.79C159.816 14.0233 160.189 14.3827 160.46 14.868C160.73 15.344 160.866 15.96 160.866 16.716V21H159.116V16.94C159.116 16.2773 158.957 15.7827 158.64 15.456C158.332 15.1293 157.898 14.966 157.338 14.966C156.927 14.966 156.563 15.05 156.246 15.218C155.928 15.386 155.681 15.638 155.504 15.974C155.336 16.3007 155.252 16.716 155.252 17.22V21H153.502V13.524H155.168V15.54L154.874 14.924C155.135 14.448 155.513 14.084 156.008 13.832C156.512 13.5707 157.09 13.44 157.744 13.44ZM167.132 21V19.488L167.034 19.166V16.52C167.034 16.0067 166.88 15.61 166.572 15.33C166.264 15.0407 165.797 14.896 165.172 14.896C164.752 14.896 164.336 14.9613 163.926 15.092C163.524 15.2227 163.184 15.4047 162.904 15.638L162.218 14.364C162.619 14.056 163.095 13.8273 163.646 13.678C164.206 13.5193 164.784 13.44 165.382 13.44C166.464 13.44 167.3 13.7013 167.888 14.224C168.485 14.7373 168.784 15.5353 168.784 16.618V21H167.132ZM164.78 21.098C164.22 21.098 163.73 21.0047 163.31 20.818C162.89 20.622 162.563 20.356 162.33 20.02C162.106 19.6747 161.994 19.2873 161.994 18.858C161.994 18.438 162.092 18.06 162.288 17.724C162.493 17.388 162.824 17.122 163.282 16.926C163.739 16.73 164.346 16.632 165.102 16.632H167.272V17.794H165.228C164.63 17.794 164.229 17.892 164.024 18.088C163.818 18.2747 163.716 18.508 163.716 18.788C163.716 19.1053 163.842 19.3573 164.094 19.544C164.346 19.7307 164.696 19.824 165.144 19.824C165.573 19.824 165.956 19.726 166.292 19.53C166.637 19.334 166.884 19.0447 167.034 18.662L167.328 19.712C167.16 20.1507 166.856 20.4913 166.418 20.734C165.988 20.9767 165.442 21.098 164.78 21.098ZM170.469 21V13.524H172.135V15.582L171.939 14.98C172.163 14.476 172.513 14.0933 172.989 13.832C173.475 13.5707 174.077 13.44 174.795 13.44V15.106C174.721 15.0873 174.651 15.078 174.585 15.078C174.52 15.0687 174.455 15.064 174.389 15.064C173.727 15.064 173.199 15.26 172.807 15.652C172.415 16.0347 172.219 16.6087 172.219 17.374V21H170.469ZM176.609 23.814C176.245 23.814 175.881 23.7533 175.517 23.632C175.153 23.5107 174.85 23.3427 174.607 23.128L175.307 21.84C175.485 21.9987 175.685 22.1247 175.909 22.218C176.133 22.3113 176.362 22.358 176.595 22.358C176.913 22.358 177.169 22.2787 177.365 22.12C177.561 21.9613 177.743 21.6953 177.911 21.322L178.345 20.342L178.485 20.132L181.313 13.524H182.993L179.493 21.602C179.26 22.162 178.999 22.6053 178.709 22.932C178.429 23.2587 178.112 23.4873 177.757 23.618C177.412 23.7487 177.029 23.814 176.609 23.814ZM178.149 21.266L174.775 13.524H176.595L179.339 19.978L178.149 21.266Z" fill="#CB5B43"/>
</svg>
