<svg width="132" height="45" viewBox="0 0 132 45" fill="none" xmlns="http://www.w3.org/2000/svg">
<rect x="0.0476074" y="0.0136719" width="131" height="44" rx="22" fill="#C3DCE3"/>
<path d="M25.6956 28.0137V18.9257H22.1116V16.8137H31.8716V18.9257H28.2876V28.0137H25.6956ZM35.8472 28.1417C34.8659 28.1417 34.0019 27.9497 33.2552 27.5657C32.5192 27.1817 31.9486 26.659 31.5432 25.9977C31.1379 25.3257 30.9352 24.563 30.9352 23.7097C30.9352 22.8457 31.1326 22.083 31.5272 21.4217C31.9326 20.7497 32.4819 20.227 33.1752 19.8537C33.8686 19.4697 34.6526 19.2777 35.5272 19.2777C36.3699 19.2777 37.1272 19.459 37.7992 19.8217C38.4819 20.1737 39.0206 20.6857 39.4152 21.3577C39.8099 22.019 40.0072 22.8137 40.0072 23.7417C40.0072 23.8377 40.0019 23.9497 39.9912 24.0777C39.9806 24.195 39.9699 24.307 39.9592 24.4137H32.9672V22.9577H38.6472L37.6872 23.3897C37.6872 22.9417 37.5966 22.5523 37.4152 22.2217C37.2339 21.891 36.9832 21.635 36.6632 21.4537C36.3432 21.2617 35.9699 21.1657 35.5432 21.1657C35.1166 21.1657 34.7379 21.2617 34.4072 21.4537C34.0872 21.635 33.8366 21.8963 33.6552 22.2377C33.4739 22.5683 33.3832 22.963 33.3832 23.4217V23.8057C33.3832 24.275 33.4846 24.691 33.6872 25.0537C33.9006 25.4057 34.1939 25.6777 34.5672 25.8697C34.9512 26.051 35.3992 26.1417 35.9112 26.1417C36.3699 26.1417 36.7699 26.0723 37.1112 25.9337C37.4632 25.795 37.7832 25.587 38.0712 25.3097L39.3992 26.7497C39.0046 27.1977 38.5086 27.5443 37.9112 27.7897C37.3139 28.0243 36.6259 28.1417 35.8472 28.1417ZM39.7066 28.0137L43.5626 22.9577L43.5146 24.3337L39.8186 19.4057H42.6186L44.9546 22.6217L43.8986 22.6537L46.3146 19.4057H48.9706L45.2586 24.2857V22.9417L49.0986 28.0137H46.2666L43.8186 24.5897L44.8586 24.7337L42.4266 28.0137H39.7066ZM53.1902 28.1417C52.1769 28.1417 51.3876 27.8857 50.8222 27.3737C50.2569 26.851 49.9742 26.0777 49.9742 25.0537V17.5017H52.4702V25.0217C52.4702 25.3843 52.5662 25.667 52.7582 25.8697C52.9502 26.0617 53.2116 26.1577 53.5422 26.1577C53.9369 26.1577 54.2729 26.051 54.5502 25.8377L55.2222 27.5977C54.9662 27.779 54.6569 27.9177 54.2942 28.0137C53.9422 28.099 53.5742 28.1417 53.1902 28.1417ZM48.6462 21.5177V19.5977H54.6142V21.5177H48.6462ZM61.0714 28.1417C60.314 28.1417 59.6634 27.9817 59.1194 27.6617C58.5754 27.3417 58.1594 26.8563 57.8714 26.2057C57.5834 25.5443 57.4394 24.7123 57.4394 23.7097C57.4394 22.6963 57.5887 21.8643 57.8874 21.2137C58.1967 20.563 58.6234 20.0777 59.1674 19.7577C59.7114 19.4377 60.346 19.2777 61.0714 19.2777C61.882 19.2777 62.6074 19.459 63.2474 19.8217C63.898 20.1843 64.41 20.6963 64.7834 21.3577C65.1674 22.019 65.3594 22.803 65.3594 23.7097C65.3594 24.6057 65.1674 25.3843 64.7834 26.0457C64.41 26.707 63.898 27.2243 63.2474 27.5977C62.6074 27.9603 61.882 28.1417 61.0714 28.1417ZM55.9834 28.0137V16.1417H58.4794V21.1497L58.3194 23.6937L58.3674 26.2537V28.0137H55.9834ZM60.6394 26.0937C61.0554 26.0937 61.4234 25.9977 61.7434 25.8057C62.074 25.6137 62.3354 25.3417 62.5274 24.9897C62.73 24.627 62.8314 24.2003 62.8314 23.7097C62.8314 23.2083 62.73 22.7817 62.5274 22.4297C62.3354 22.0777 62.074 21.8057 61.7434 21.6137C61.4234 21.4217 61.0554 21.3257 60.6394 21.3257C60.2234 21.3257 59.85 21.4217 59.5194 21.6137C59.1887 21.8057 58.9274 22.0777 58.7354 22.4297C58.5434 22.7817 58.4474 23.2083 58.4474 23.7097C58.4474 24.2003 58.5434 24.627 58.7354 24.9897C58.9274 25.3417 59.1887 25.6137 59.5194 25.8057C59.85 25.9977 60.2234 26.0937 60.6394 26.0937ZM70.4862 28.1417C69.5689 28.1417 68.7529 27.9497 68.0382 27.5657C67.3342 27.1817 66.7742 26.659 66.3582 25.9977C65.9529 25.3257 65.7502 24.563 65.7502 23.7097C65.7502 22.8457 65.9529 22.083 66.3582 21.4217C66.7742 20.7497 67.3342 20.227 68.0382 19.8537C68.7529 19.4697 69.5689 19.2777 70.4862 19.2777C71.3929 19.2777 72.2036 19.4697 72.9182 19.8537C73.6329 20.227 74.1929 20.7443 74.5982 21.4057C75.0036 22.067 75.2062 22.835 75.2062 23.7097C75.2062 24.563 75.0036 25.3257 74.5982 25.9977C74.1929 26.659 73.6329 27.1817 72.9182 27.5657C72.2036 27.9497 71.3929 28.1417 70.4862 28.1417ZM70.4862 26.0937C70.9022 26.0937 71.2756 25.9977 71.6062 25.8057C71.9369 25.6137 72.1982 25.3417 72.3902 24.9897C72.5822 24.627 72.6782 24.2003 72.6782 23.7097C72.6782 23.2083 72.5822 22.7817 72.3902 22.4297C72.1982 22.0777 71.9369 21.8057 71.6062 21.6137C71.2756 21.4217 70.9022 21.3257 70.4862 21.3257C70.0702 21.3257 69.6969 21.4217 69.3662 21.6137C69.0356 21.8057 68.7689 22.0777 68.5662 22.4297C68.3742 22.7817 68.2782 23.2083 68.2782 23.7097C68.2782 24.2003 68.3742 24.627 68.5662 24.9897C68.7689 25.3417 69.0356 25.6137 69.3662 25.8057C69.6969 25.9977 70.0702 26.0937 70.4862 26.0937ZM80.3306 28.1417C79.4133 28.1417 78.5973 27.9497 77.8826 27.5657C77.1786 27.1817 76.6186 26.659 76.2026 25.9977C75.7973 25.3257 75.5946 24.563 75.5946 23.7097C75.5946 22.8457 75.7973 22.083 76.2026 21.4217C76.6186 20.7497 77.1786 20.227 77.8826 19.8537C78.5973 19.4697 79.4133 19.2777 80.3306 19.2777C81.2373 19.2777 82.0479 19.4697 82.7626 19.8537C83.4773 20.227 84.0373 20.7443 84.4426 21.4057C84.8479 22.067 85.0506 22.835 85.0506 23.7097C85.0506 24.563 84.8479 25.3257 84.4426 25.9977C84.0373 26.659 83.4773 27.1817 82.7626 27.5657C82.0479 27.9497 81.2373 28.1417 80.3306 28.1417ZM80.3306 26.0937C80.7466 26.0937 81.1199 25.9977 81.4506 25.8057C81.7813 25.6137 82.0426 25.3417 82.2346 24.9897C82.4266 24.627 82.5226 24.2003 82.5226 23.7097C82.5226 23.2083 82.4266 22.7817 82.2346 22.4297C82.0426 22.0777 81.7813 21.8057 81.4506 21.6137C81.1199 21.4217 80.7466 21.3257 80.3306 21.3257C79.9146 21.3257 79.5413 21.4217 79.2106 21.6137C78.8799 21.8057 78.6133 22.0777 78.4106 22.4297C78.2186 22.7817 78.1226 23.2083 78.1226 23.7097C78.1226 24.2003 78.2186 24.627 78.4106 24.9897C78.6133 25.3417 78.8799 25.6137 79.2106 25.8057C79.5413 25.9977 79.9146 26.0937 80.3306 26.0937ZM88.143 26.2537L88.207 23.2137L92.223 19.4057H95.199L91.343 23.3257L90.047 24.3817L88.143 26.2537ZM86.079 28.0137V16.1417H88.575V28.0137H86.079ZM92.495 28.0137L89.583 24.3977L91.151 22.4617L95.519 28.0137H92.495ZM104.789 19.9977L107.157 23.5977L104.789 27.2297H102.629L104.805 23.5977L102.629 19.9977H104.789ZM105.269 22.7337V24.4777H99.5407V22.7337H105.269Z" fill="#2B788B"/>
</svg>
