<svg width="130" height="44" viewBox="0 0 130 44" fill="none" xmlns="http://www.w3.org/2000/svg">
<rect x="0.0476074" width="129" height="44" rx="22" fill="#C3DCE3"/>
<path d="M27.0556 28.192C26.1596 28.192 25.3009 28.0747 24.4796 27.84C23.6583 27.5947 22.9969 27.28 22.4956 26.896L23.3756 24.944C23.8556 25.2853 24.4209 25.568 25.0716 25.792C25.7329 26.0053 26.3996 26.112 27.0716 26.112C27.5836 26.112 27.9943 26.064 28.3036 25.968C28.6236 25.8613 28.8583 25.7173 29.0076 25.536C29.1569 25.3547 29.2316 25.1467 29.2316 24.912C29.2316 24.6133 29.1143 24.3787 28.8796 24.208C28.6449 24.0267 28.3356 23.8827 27.9516 23.776C27.5676 23.6587 27.1409 23.552 26.6716 23.456C26.2129 23.3493 25.7489 23.2213 25.2796 23.072C24.8209 22.9227 24.3996 22.7307 24.0156 22.496C23.6316 22.2613 23.3169 21.952 23.0716 21.568C22.8369 21.184 22.7196 20.6933 22.7196 20.096C22.7196 19.456 22.8903 18.8747 23.2316 18.352C23.5836 17.8187 24.1063 17.3973 24.7996 17.088C25.5036 16.768 26.3836 16.608 27.4396 16.608C28.1436 16.608 28.8369 16.6933 29.5196 16.864C30.2023 17.024 30.8049 17.2693 31.3276 17.6L30.5276 19.568C30.0049 19.2693 29.4823 19.0507 28.9596 18.912C28.4369 18.7627 27.9249 18.688 27.4236 18.688C26.9223 18.688 26.5116 18.7467 26.1916 18.864C25.8716 18.9813 25.6423 19.136 25.5036 19.328C25.3649 19.5093 25.2956 19.7227 25.2956 19.968C25.2956 20.256 25.4129 20.4907 25.6476 20.672C25.8823 20.8427 26.1916 20.9813 26.5756 21.088C26.9596 21.1947 27.3809 21.3013 27.8396 21.408C28.3089 21.5147 28.7729 21.6373 29.2316 21.776C29.7009 21.9147 30.1276 22.1013 30.5116 22.336C30.8956 22.5707 31.2049 22.88 31.4396 23.264C31.6849 23.648 31.8076 24.1333 31.8076 24.72C31.8076 25.3493 31.6316 25.9253 31.2796 26.448C30.9276 26.9707 30.3996 27.392 29.6956 27.712C29.0023 28.032 28.1223 28.192 27.0556 28.192ZM36.2827 28.128C35.2694 28.128 34.4801 27.872 33.9147 27.36C33.3494 26.8373 33.0667 26.064 33.0667 25.04V17.488H35.5627V25.008C35.5627 25.3707 35.6587 25.6533 35.8507 25.856C36.0427 26.048 36.3041 26.144 36.6347 26.144C37.0294 26.144 37.3654 26.0373 37.6427 25.824L38.3147 27.584C38.0587 27.7653 37.7494 27.904 37.3867 28C37.0347 28.0853 36.6667 28.128 36.2827 28.128ZM31.7387 21.504V19.584H37.7067V21.504H31.7387ZM44.3559 28V26.32L44.1959 25.952V22.944C44.1959 22.4107 44.0305 21.9947 43.6999 21.696C43.3799 21.3973 42.8839 21.248 42.2119 21.248C41.7532 21.248 41.2999 21.3227 40.8519 21.472C40.4145 21.6107 40.0412 21.8027 39.7319 22.048L38.8359 20.304C39.3052 19.9733 39.8705 19.7173 40.5319 19.536C41.1932 19.3547 41.8652 19.264 42.5479 19.264C43.8599 19.264 44.8785 19.5733 45.6039 20.192C46.3292 20.8107 46.6919 21.776 46.6919 23.088V28H44.3559ZM41.7319 28.128C41.0599 28.128 40.4839 28.016 40.0039 27.792C39.5239 27.5573 39.1559 27.2427 38.8999 26.848C38.6439 26.4533 38.5159 26.0107 38.5159 25.52C38.5159 25.008 38.6385 24.56 38.8839 24.176C39.1399 23.792 39.5399 23.4933 40.0839 23.28C40.6279 23.056 41.3372 22.944 42.2119 22.944H44.4999V24.4H42.4839C41.8972 24.4 41.4919 24.496 41.2679 24.688C41.0545 24.88 40.9479 25.12 40.9479 25.408C40.9479 25.728 41.0705 25.984 41.3159 26.176C41.5719 26.3573 41.9185 26.448 42.3559 26.448C42.7719 26.448 43.1452 26.352 43.4759 26.16C43.8065 25.9573 44.0465 25.664 44.1959 25.28L44.5799 26.432C44.3985 26.9867 44.0679 27.408 43.5879 27.696C43.1079 27.984 42.4892 28.128 41.7319 28.128ZM51.8309 28.128C50.8175 28.128 50.0282 27.872 49.4629 27.36C48.8975 26.8373 48.6149 26.064 48.6149 25.04V17.488H51.1109V25.008C51.1109 25.3707 51.2069 25.6533 51.3989 25.856C51.5909 26.048 51.8522 26.144 52.1829 26.144C52.5775 26.144 52.9135 26.0373 53.1909 25.824L53.8629 27.584C53.6069 27.7653 53.2975 27.904 52.9349 28C52.5829 28.0853 52.2149 28.128 51.8309 28.128ZM47.2869 21.504V19.584H53.2549V21.504H47.2869ZM54.624 28V19.392H57.12V28H54.624ZM55.872 18.192C55.4133 18.192 55.04 18.0587 54.752 17.792C54.464 17.5253 54.32 17.1947 54.32 16.8C54.32 16.4053 54.464 16.0747 54.752 15.808C55.04 15.5413 55.4133 15.408 55.872 15.408C56.3306 15.408 56.704 15.536 56.992 15.792C57.28 16.0373 57.424 16.3573 57.424 16.752C57.424 17.168 57.28 17.5147 56.992 17.792C56.7146 18.0587 56.3413 18.192 55.872 18.192ZM61.6925 28.128C60.9565 28.128 60.2471 28.0427 59.5645 27.872C58.8925 27.6907 58.3591 27.4667 57.9645 27.2L58.7965 25.408C59.1911 25.6533 59.6551 25.856 60.1885 26.016C60.7325 26.1653 61.2658 26.24 61.7885 26.24C62.3645 26.24 62.7698 26.1707 63.0045 26.032C63.2498 25.8933 63.3725 25.7013 63.3725 25.456C63.3725 25.2533 63.2765 25.104 63.0845 25.008C62.9031 24.9013 62.6578 24.8213 62.3485 24.768C62.0391 24.7147 61.6978 24.6613 61.3245 24.608C60.9618 24.5547 60.5938 24.4853 60.2205 24.4C59.8471 24.304 59.5058 24.1653 59.1965 23.984C58.8871 23.8027 58.6365 23.5573 58.4445 23.248C58.2631 22.9387 58.1725 22.5387 58.1725 22.048C58.1725 21.504 58.3271 21.024 58.6365 20.608C58.9565 20.192 59.4151 19.8667 60.0125 19.632C60.6098 19.3867 61.3245 19.264 62.1565 19.264C62.7431 19.264 63.3405 19.328 63.9485 19.456C64.5565 19.584 65.0631 19.7707 65.4685 20.016L64.6365 21.792C64.2205 21.5467 63.7991 21.3813 63.3725 21.296C62.9565 21.2 62.5511 21.152 62.1565 21.152C61.6018 21.152 61.1965 21.2267 60.9405 21.376C60.6845 21.5253 60.5565 21.7173 60.5565 21.952C60.5565 22.1653 60.6471 22.3253 60.8285 22.432C61.0205 22.5387 61.2711 22.624 61.5805 22.688C61.8898 22.752 62.2258 22.8107 62.5885 22.864C62.9618 22.9067 63.3351 22.976 63.7085 23.072C64.0818 23.168 64.4178 23.3067 64.7165 23.488C65.0258 23.6587 65.2765 23.8987 65.4685 24.208C65.6605 24.5067 65.7565 24.9013 65.7565 25.392C65.7565 25.9253 65.5965 26.4 65.2765 26.816C64.9565 27.2213 64.4925 27.5413 63.8845 27.776C63.2871 28.0107 62.5565 28.128 61.6925 28.128ZM70.1765 28.128C69.1631 28.128 68.3738 27.872 67.8085 27.36C67.2431 26.8373 66.9605 26.064 66.9605 25.04V17.488H69.4565V25.008C69.4565 25.3707 69.5525 25.6533 69.7445 25.856C69.9365 26.048 70.1978 26.144 70.5285 26.144C70.9231 26.144 71.2591 26.0373 71.5365 25.824L72.2085 27.584C71.9525 27.7653 71.6431 27.904 71.2805 28C70.9285 28.0853 70.5605 28.128 70.1765 28.128ZM65.6325 21.504V19.584H71.6005V21.504H65.6325ZM72.9696 28V19.392H75.4656V28H72.9696ZM74.2176 18.192C73.7589 18.192 73.3856 18.0587 73.0976 17.792C72.8096 17.5253 72.6656 17.1947 72.6656 16.8C72.6656 16.4053 72.8096 16.0747 73.0976 15.808C73.3856 15.5413 73.7589 15.408 74.2176 15.408C74.6763 15.408 75.0496 15.536 75.3376 15.792C75.6256 16.0373 75.7696 16.3573 75.7696 16.752C75.7696 17.168 75.6256 17.5147 75.3376 17.792C75.0603 18.0587 74.6869 18.192 74.2176 18.192ZM81.3021 28.128C80.3741 28.128 79.5474 27.9413 78.8221 27.568C78.0968 27.184 77.5261 26.656 77.1101 25.984C76.7048 25.312 76.5021 24.5493 76.5021 23.696C76.5021 22.832 76.7048 22.0693 77.1101 21.408C77.5261 20.736 78.0968 20.2133 78.8221 19.84C79.5474 19.456 80.3741 19.264 81.3021 19.264C82.2088 19.264 82.9981 19.456 83.6701 19.84C84.3421 20.2133 84.8381 20.752 85.1581 21.456L83.2221 22.496C82.9981 22.0907 82.7154 21.792 82.3741 21.6C82.0434 21.408 81.6808 21.312 81.2861 21.312C80.8594 21.312 80.4754 21.408 80.1341 21.6C79.7928 21.792 79.5208 22.064 79.3181 22.416C79.1261 22.768 79.0301 23.1947 79.0301 23.696C79.0301 24.1973 79.1261 24.624 79.3181 24.976C79.5208 25.328 79.7928 25.6 80.1341 25.792C80.4754 25.984 80.8594 26.08 81.2861 26.08C81.6808 26.08 82.0434 25.9893 82.3741 25.808C82.7154 25.616 82.9981 25.312 83.2221 24.896L85.1581 25.952C84.8381 26.6453 84.3421 27.184 83.6701 27.568C82.9981 27.9413 82.2088 28.128 81.3021 28.128ZM88.8512 28.128C88.1152 28.128 87.4059 28.0427 86.7232 27.872C86.0512 27.6907 85.5179 27.4667 85.1232 27.2L85.9552 25.408C86.3499 25.6533 86.8139 25.856 87.3472 26.016C87.8912 26.1653 88.4246 26.24 88.9472 26.24C89.5232 26.24 89.9286 26.1707 90.1632 26.032C90.4086 25.8933 90.5312 25.7013 90.5312 25.456C90.5312 25.2533 90.4352 25.104 90.2432 25.008C90.0619 24.9013 89.8166 24.8213 89.5072 24.768C89.1979 24.7147 88.8566 24.6613 88.4832 24.608C88.1206 24.5547 87.7526 24.4853 87.3792 24.4C87.0059 24.304 86.6646 24.1653 86.3552 23.984C86.0459 23.8027 85.7952 23.5573 85.6032 23.248C85.4219 22.9387 85.3312 22.5387 85.3312 22.048C85.3312 21.504 85.4859 21.024 85.7952 20.608C86.1152 20.192 86.5739 19.8667 87.1712 19.632C87.7686 19.3867 88.4832 19.264 89.3152 19.264C89.9019 19.264 90.4992 19.328 91.1072 19.456C91.7152 19.584 92.2219 19.7707 92.6272 20.016L91.7952 21.792C91.3792 21.5467 90.9579 21.3813 90.5312 21.296C90.1152 21.2 89.7099 21.152 89.3152 21.152C88.7606 21.152 88.3552 21.2267 88.0992 21.376C87.8432 21.5253 87.7152 21.7173 87.7152 21.952C87.7152 22.1653 87.8059 22.3253 87.9872 22.432C88.1792 22.5387 88.4299 22.624 88.7392 22.688C89.0486 22.752 89.3846 22.8107 89.7472 22.864C90.1206 22.9067 90.4939 22.976 90.8672 23.072C91.2406 23.168 91.5766 23.3067 91.8752 23.488C92.1846 23.6587 92.4352 23.8987 92.6272 24.208C92.8192 24.5067 92.9152 24.9013 92.9152 25.392C92.9152 25.9253 92.7552 26.4 92.4352 26.816C92.1152 27.2213 91.6512 27.5413 91.0432 27.776C90.4459 28.0107 89.7152 28.128 88.8512 28.128ZM102.602 19.984L104.97 23.584L102.602 27.216H100.442L102.618 23.584L100.442 19.984H102.602ZM103.082 22.72V24.464H97.3545V22.72H103.082Z" fill="#2B788B"/>
</svg>
